<?xml version="1.0" encoding="UTF-8" standalone="no"?>
<svg
   xmlns:dc="http://purl.org/dc/elements/1.1/"
   xmlns:cc="http://creativecommons.org/ns#"
   xmlns:rdf="http://www.w3.org/1999/02/22-rdf-syntax-ns#"
   xmlns:svg="http://www.w3.org/2000/svg"
   xmlns="http://www.w3.org/2000/svg"
   xmlns:sodipodi="http://sodipodi.sourceforge.net/DTD/sodipodi-0.dtd"
   xmlns:inkscape="http://www.inkscape.org/namespaces/inkscape"
   inkscape:version="1.0 (4035a4fb49, 2020-05-01)"
   sodipodi:docname="go-forward.svg"
   xml:space="preserve"
   style="enable-background:new 0 0 194.861 194.861;"
   viewBox="0 0 194.861 194.861"
   y="0px"
   x="0px"
   id="Capa_1"
   version="1.1"><metadata
   id="metadata39"><rdf:RDF><cc:Work
       rdf:about=""><dc:format>image/svg+xml</dc:format><dc:type
         rdf:resource="http://purl.org/dc/dcmitype/StillImage" /><dc:title></dc:title></cc:Work></rdf:RDF></metadata><defs
   id="defs37" /><sodipodi:namedview
   inkscape:current-layer="Capa_1"
   inkscape:window-maximized="1"
   inkscape:window-y="-8"
   inkscape:window-x="1912"
   inkscape:cy="126.96209"
   inkscape:cx="124.04999"
   inkscape:zoom="3.6578056"
   showgrid="false"
   id="namedview35"
   inkscape:window-height="1377"
   inkscape:window-width="2560"
   inkscape:pageshadow="2"
   inkscape:pageopacity="0"
   guidetolerance="10"
   gridtolerance="10"
   objecttolerance="10"
   borderopacity="1"
   bordercolor="#666666"
   pagecolor="#ffffff" />
<path
   sodipodi:nodetypes="ccccccccccsccsc"
   id="path2"
   d="m 101.26704,2.5633101 47.352,47.3549999 c 2.929,2.929 2.928,7.677 0,10.607 -2.929,2.929 -7.678,2.928 -10.607,-10e-4 l -34.548,-34.55 v 80.405 c -6.375944,56.45076 -15.403464,13.19667 -15.001004,0 v -80.405 l -34.742995,34.748 c -2.929,2.929 -7.678,2.93 -10.606,10e-4 -1.465,-1.465 -2.197,-3.384 -2.197,-5.304 0,-1.919 0.732,-3.838 2.196,-5.303 L 90.660036,2.5633101 c 1.407,-1.407 3.314,-2.19699996 5.304,-2.19699996 1.989,0 3.896,0.78999996 5.303004,2.19699996 z" />
<g
   id="g4">
</g>
<g
   id="g6">
</g>
<g
   id="g8">
</g>
<g
   id="g10">
</g>
<g
   id="g12">
</g>
<g
   id="g14">
</g>
<g
   id="g16">
</g>
<g
   id="g18">
</g>
<g
   id="g20">
</g>
<g
   id="g22">
</g>
<g
   id="g24">
</g>
<g
   id="g26">
</g>
<g
   id="g28">
</g>
<g
   id="g30">
</g>
<g
   id="g32">
</g>
<path
   sodipodi:nodetypes="cssscc"
   d="M 103.36055,88.814011 V 187.328 c 0,4.142 -3.358,7.5 -7.500004,7.5 -4.142,0 -7.5,-3.358 -7.5,-7.5 V 88.815011 c 6.49524,-23.67517 5.2986,-54.968199 15.000004,-0.001 z"
   id="path2-6" /></svg>
