<?xml version="1.0" encoding="UTF-8" standalone="no"?>
<svg
   xmlns:dc="http://purl.org/dc/elements/1.1/"
   xmlns:cc="http://creativecommons.org/ns#"
   xmlns:rdf="http://www.w3.org/1999/02/22-rdf-syntax-ns#"
   xmlns:svg="http://www.w3.org/2000/svg"
   xmlns="http://www.w3.org/2000/svg"
   xmlns:sodipodi="http://sodipodi.sourceforge.net/DTD/sodipodi-0.dtd"
   xmlns:inkscape="http://www.inkscape.org/namespaces/inkscape"
   version="1.1"
   id="Capa_1"
   x="0px"
   y="0px"
   viewBox="0 0 194.861 194.861"
   style="enable-background:new 0 0 194.861 194.861;"
   xml:space="preserve"
   sodipodi:docname="turn-slight-left.svg"
   inkscape:version="1.0 (4035a4fb49, 2020-05-01)"><metadata
   id="metadata39"><rdf:RDF><cc:Work
       rdf:about=""><dc:format>image/svg+xml</dc:format><dc:type
         rdf:resource="http://purl.org/dc/dcmitype/StillImage" /><dc:title></dc:title></cc:Work></rdf:RDF></metadata><defs
   id="defs37" /><sodipodi:namedview
   inkscape:document-rotation="0"
   pagecolor="#ffffff"
   bordercolor="#666666"
   borderopacity="1"
   objecttolerance="10"
   gridtolerance="10"
   guidetolerance="10"
   inkscape:pageopacity="0"
   inkscape:pageshadow="2"
   inkscape:window-width="2560"
   inkscape:window-height="1377"
   id="namedview35"
   showgrid="false"
   inkscape:zoom="3.6578056"
   inkscape:cx="77.240591"
   inkscape:cy="79.496547"
   inkscape:window-x="1912"
   inkscape:window-y="-8"
   inkscape:window-maximized="1"
   inkscape:current-layer="Capa_1" />
<path
   style="stroke-width:0.949087"
   d="m 113.18441,82.941573 c 4.52732,4.283855 7.31553,10.072181 7.31552,16.43973 l -0.001,88.737187 c 1e-5,3.73097 3.35858,6.75627 7.50058,6.75627 4.142,0 7.50058,-3.0253 7.50058,-6.75627 V 99.38006 c 0,-10.092427 -4.47067,-19.256811 -11.71284,-25.988828 z"
   id="path2" />
<g
   id="g4">
</g>
<g
   id="g6">
</g>
<g
   id="g8">
</g>
<g
   id="g10">
</g>
<g
   id="g12">
</g>
<g
   id="g14">
</g>
<g
   id="g16">
</g>
<g
   id="g18">
</g>
<g
   id="g20">
</g>
<g
   id="g22">
</g>
<g
   id="g24">
</g>
<g
   id="g26">
</g>
<g
   id="g28">
</g>
<g
   id="g30">
</g>
<g
   id="g32">
</g>
<path
   sodipodi:nodetypes="ssccsccccccccccccs"
   d="M 47.246094,0.02148438 C 45.257001,0.02200252 43.351281,0.8127765 41.945312,2.21875 40.538172,3.625893 39.748047,5.5316864 39.748047,7.5214844 l 0.0039,67.2460936 c 7e-4,2.071116 0.840326,3.945797 2.197266,5.302734 1.35764,1.357645 3.230904,2.197266 5.302734,2.197266 4.14152,7.07e-4 7.5,-3.357768 7.5,-7.5 l -0.0039,-49.138672 56.853513,56.855469 c 2.68617,2.686164 5.82976,5.470208 7.11893,8.804749 l 14.50217,0.341735 c -1.7084,-7.243909 -5.37553,-14.115767 -11.01368,-19.753906 l -56.853511,-56.855469 48.859371,0.002 c 4.14223,0 7.5,-3.35777 7.5,-7.5000005 -0.001,-4.142232 -3.35777,-7.5 -7.5,-7.5 L 47.248047,0.02148438 Z"
   id="path847" /></svg>
