<?xml version="1.0" encoding="UTF-8" standalone="no"?>
<svg
   xmlns:dc="http://purl.org/dc/elements/1.1/"
   xmlns:cc="http://creativecommons.org/ns#"
   xmlns:rdf="http://www.w3.org/1999/02/22-rdf-syntax-ns#"
   xmlns:svg="http://www.w3.org/2000/svg"
   xmlns="http://www.w3.org/2000/svg"
   xmlns:sodipodi="http://sodipodi.sourceforge.net/DTD/sodipodi-0.dtd"
   xmlns:inkscape="http://www.inkscape.org/namespaces/inkscape"
   inkscape:version="1.0 (4035a4fb49, 2020-05-01)"
   sodipodi:docname="turn-left.svg"
   xml:space="preserve"
   style="enable-background:new 0 0 194.861 194.861;"
   viewBox="0 0 194.861 194.861"
   y="0px"
   x="0px"
   id="Capa_1"
   version="1.1"><metadata
   id="metadata39"><rdf:RDF><cc:Work
       rdf:about=""><dc:format>image/svg+xml</dc:format><dc:type
         rdf:resource="http://purl.org/dc/dcmitype/StillImage" /><dc:title></dc:title></cc:Work></rdf:RDF></metadata><defs
   id="defs37" /><sodipodi:namedview
   inkscape:current-layer="Capa_1"
   inkscape:window-maximized="1"
   inkscape:window-y="-8"
   inkscape:window-x="1912"
   inkscape:cy="95.497351"
   inkscape:cx="102.07004"
   inkscape:zoom="5.1729183"
   showgrid="false"
   id="namedview35"
   inkscape:window-height="1377"
   inkscape:window-width="2560"
   inkscape:pageshadow="2"
   inkscape:pageopacity="0"
   guidetolerance="10"
   gridtolerance="10"
   objecttolerance="10"
   borderopacity="1"
   bordercolor="#666666"
   pagecolor="#ffffff" />
<path
   id="path2"
   d="M 25.874,49.548 73.229,2.196 c 2.929,-2.929 7.677,-2.928 10.607,0 2.929,2.929 2.928,7.678 -0.001,10.607 l -34.55,34.548 h 80.405 c 22.88,0 41.495,18.615 41.495,41.496 v 98.514 c 0,4.142 -3.358,7.5 -7.5,7.5 -4.142,0 -7.5,-3.358 -7.5,-7.5 V 88.848 c 0,-14.61 -11.886,-26.496 -26.495,-26.496 H 49.285 l 34.748,34.743 c 2.929,2.929 2.93,7.678 0.001,10.606 -1.465,1.465 -3.384,2.197 -5.304,2.197 -1.919,0 -3.838,-0.732 -5.303,-2.196 L 25.874,60.155 c -1.407,-1.407 -2.197,-3.314 -2.197,-5.304 0,-1.989 0.79,-3.896 2.197,-5.303 z" />
<g
   id="g4">
</g>
<g
   id="g6">
</g>
<g
   id="g8">
</g>
<g
   id="g10">
</g>
<g
   id="g12">
</g>
<g
   id="g14">
</g>
<g
   id="g16">
</g>
<g
   id="g18">
</g>
<g
   id="g20">
</g>
<g
   id="g22">
</g>
<g
   id="g24">
</g>
<g
   id="g26">
</g>
<g
   id="g28">
</g>
<g
   id="g30">
</g>
<g
   id="g32">
</g>
</svg>
